<svg width="200" height="200" viewBox="0 0 200 200" fill="none" xmlns="http://www.w3.org/2000/svg">
<rect width="200" height="200" rx="30" fill="#1C4698"/>
<rect x="60" y="39" width="38" height="10" rx="1" fill="white"/>
<rect x="106" y="63" width="34" height="11" rx="1" fill="#80C4ED"/>
<rect x="106" y="39" width="34" height="10" rx="1" fill="white"/>
<rect x="106" y="88" width="34" height="10" rx="1" fill="#80C4ED"/>
<rect x="98" y="39" width="59" height="11" rx="1" transform="rotate(90 98 39)" fill="white"/>
<path d="M57.8542 135H55.1663C54.6969 135 54.4623 134.776 54.4623 134.328V118.296C54.4623 118.061 54.3449 117.944 54.1102 117.944H50.4622C50.0143 117.944 49.7903 117.72 49.7903 117.272V115.096C49.7903 114.648 50.0143 114.424 50.4622 114.424H62.5583C63.0063 114.424 63.2303 114.648 63.2303 115.096V117.272C63.2303 117.72 63.0063 117.944 62.5583 117.944H58.9103C58.6543 117.944 58.5263 118.061 58.5263 118.296V134.328C58.5263 134.776 58.3023 135 57.8542 135ZM84.0658 135H81.3458C80.8978 135 80.6738 134.776 80.6738 134.328V115.096C80.6738 114.648 80.8978 114.424 81.3458 114.424H88.9618C90.6258 114.424 91.9271 114.883 92.8658 115.8C93.8044 116.717 94.2738 118.008 94.2738 119.672V122.168C94.2738 124.579 93.3244 126.179 91.4258 126.968V127.096L94.8498 134.232C95.0418 134.744 94.8604 135 94.3058 135H91.7138C91.3298 135 91.0524 134.957 90.8818 134.872C90.7111 134.787 90.5724 134.605 90.4658 134.328L87.2658 127.416H85.1218C84.8658 127.416 84.7378 127.533 84.7378 127.768V134.328C84.7378 134.776 84.5138 135 84.0658 135ZM85.0898 124.152H88.2258C88.9084 124.152 89.4098 124.013 89.7298 123.736C90.0498 123.437 90.2098 122.968 90.2098 122.328V119.832C90.2098 119.171 90.0498 118.691 89.7298 118.392C89.4098 118.093 88.9084 117.944 88.2258 117.944H85.0898C84.8551 117.944 84.7378 118.061 84.7378 118.296V123.8C84.7378 124.035 84.8551 124.152 85.0898 124.152ZM117.398 115.096V134.328C117.398 134.776 117.174 135 116.726 135H114.006C113.558 135 113.334 134.776 113.334 134.328V115.096C113.334 114.648 113.558 114.424 114.006 114.424H116.726C117.174 114.424 117.398 114.648 117.398 115.096ZM140.097 135H137.377C136.929 135 136.705 134.776 136.705 134.328V115.096C136.705 114.648 136.929 114.424 137.377 114.424H145.185C146.849 114.424 148.14 114.883 149.057 115.8C149.974 116.696 150.433 117.976 150.433 119.64V122.712C150.433 124.376 149.974 125.667 149.057 126.584C148.14 127.48 146.849 127.928 145.185 127.928H141.153C140.897 127.928 140.769 128.045 140.769 128.28V134.328C140.769 134.776 140.545 135 140.097 135ZM141.121 124.376H144.513C145.196 124.376 145.676 124.237 145.953 123.96C146.23 123.661 146.369 123.181 146.369 122.52V119.832C146.369 119.149 146.23 118.669 145.953 118.392C145.676 118.093 145.196 117.944 144.513 117.944H141.121C140.886 117.944 140.769 118.061 140.769 118.296V124.024C140.769 124.259 140.886 124.376 141.121 124.376Z" fill="white"/>
<path d="M57.4612 156H50.9212C50.6412 156 50.5012 155.86 50.5012 155.58V143.56C50.5012 143.28 50.6412 143.14 50.9212 143.14H57.4612C57.7278 143.14 57.8612 143.28 57.8612 143.56V144.92C57.8612 145.2 57.7278 145.34 57.4612 145.34H53.2812C53.1212 145.34 53.0412 145.413 53.0412 145.56V148.16C53.0412 148.307 53.1212 148.38 53.2812 148.38H56.7012C56.9812 148.38 57.1212 148.52 57.1212 148.8V150.16C57.1212 150.44 56.9812 150.58 56.7012 150.58H53.2812C53.1212 150.58 53.0412 150.653 53.0412 150.8V153.58C53.0412 153.727 53.1212 153.8 53.2812 153.8H57.4612C57.7278 153.8 57.8612 153.94 57.8612 154.22V155.58C57.8612 155.86 57.7278 156 57.4612 156ZM66.5315 156H64.5515C64.4182 156 64.3248 155.96 64.2715 155.88C64.2182 155.787 64.2182 155.68 64.2715 155.56L67.3715 149.42L64.3715 143.58C64.3182 143.473 64.3182 143.373 64.3715 143.28C64.4248 143.187 64.5182 143.14 64.6515 143.14H66.5715C66.9048 143.14 67.1248 143.28 67.2315 143.56L69.1315 147.86H69.2115L71.0915 143.56C71.2248 143.28 71.4382 143.14 71.7315 143.14H73.6915C73.8248 143.14 73.9182 143.193 73.9715 143.3C74.0382 143.393 74.0448 143.493 73.9915 143.6L70.9515 149.42L74.0515 155.54C74.1182 155.673 74.1248 155.787 74.0715 155.88C74.0182 155.96 73.9182 156 73.7715 156H71.7715C71.4915 156 71.2982 155.867 71.1915 155.6L69.2115 151.28H69.1315L67.1315 155.6C67.0115 155.867 66.8115 156 66.5315 156ZM82.9923 156H81.2923C81.0123 156 80.8723 155.86 80.8723 155.58V143.56C80.8723 143.28 81.0123 143.14 81.2923 143.14H86.1723C87.2123 143.14 88.0189 143.427 88.5923 144C89.1656 144.56 89.4523 145.36 89.4523 146.4V148.32C89.4523 149.36 89.1656 150.167 88.5923 150.74C88.0189 151.3 87.2123 151.58 86.1723 151.58H83.6523C83.4923 151.58 83.4123 151.653 83.4123 151.8V155.58C83.4123 155.86 83.2723 156 82.9923 156ZM83.6323 149.36H85.7523C86.1789 149.36 86.4789 149.273 86.6523 149.1C86.8256 148.913 86.9123 148.613 86.9123 148.2V146.52C86.9123 146.093 86.8256 145.793 86.6523 145.62C86.4789 145.433 86.1789 145.34 85.7523 145.34H83.6323C83.4856 145.34 83.4123 145.413 83.4123 145.56V149.14C83.4123 149.287 83.4856 149.36 83.6323 149.36ZM103.438 156H96.8977C96.6177 156 96.4777 155.86 96.4777 155.58V143.56C96.4777 143.28 96.6177 143.14 96.8977 143.14H103.438C103.704 143.14 103.838 143.28 103.838 143.56V144.92C103.838 145.2 103.704 145.34 103.438 145.34H99.2577C99.0977 145.34 99.0177 145.413 99.0177 145.56V148.16C99.0177 148.307 99.0977 148.38 99.2577 148.38H102.678C102.958 148.38 103.098 148.52 103.098 148.8V150.16C103.098 150.44 102.958 150.58 102.678 150.58H99.2577C99.0977 150.58 99.0177 150.653 99.0177 150.8V153.58C99.0177 153.727 99.0977 153.8 99.2577 153.8H103.438C103.704 153.8 103.838 153.94 103.838 154.22V155.58C103.838 155.86 103.704 156 103.438 156ZM113.128 156H111.468C111.188 156 111.048 155.86 111.048 155.58V143.56C111.048 143.28 111.188 143.14 111.468 143.14H112.968C113.248 143.14 113.435 143.233 113.528 143.42L117.568 151H117.648V143.56C117.648 143.28 117.788 143.14 118.068 143.14H119.728C120.008 143.14 120.148 143.28 120.148 143.56V155.58C120.148 155.86 120.008 156 119.728 156H118.268C117.975 156 117.761 155.867 117.628 155.6L113.628 148.16H113.548V155.58C113.548 155.86 113.408 156 113.128 156ZM127.427 152.72V152.32C127.427 152.04 127.567 151.9 127.847 151.9H129.547C129.827 151.9 129.967 152.04 129.967 152.32V152.48C129.967 152.987 130.067 153.333 130.267 153.52C130.467 153.707 130.834 153.8 131.367 153.8H132.307C132.827 153.8 133.187 153.7 133.387 153.5C133.601 153.3 133.707 152.927 133.707 152.38V152.14C133.707 151.753 133.547 151.46 133.227 151.26C132.921 151.047 132.534 150.92 132.067 150.88C131.601 150.84 131.094 150.767 130.547 150.66C130.014 150.54 129.514 150.393 129.047 150.22C128.581 150.033 128.187 149.68 127.867 149.16C127.561 148.627 127.407 147.947 127.407 147.12V146.42C127.407 145.38 127.701 144.573 128.287 144C128.874 143.427 129.687 143.14 130.727 143.14H132.727C133.781 143.14 134.601 143.427 135.187 144C135.774 144.573 136.067 145.38 136.067 146.42V146.8C136.067 147.08 135.927 147.22 135.647 147.22H133.947C133.667 147.22 133.527 147.08 133.527 146.8V146.68C133.527 146.16 133.427 145.807 133.227 145.62C133.027 145.433 132.661 145.34 132.127 145.34H131.347C130.801 145.34 130.427 145.447 130.227 145.66C130.041 145.86 129.947 146.26 129.947 146.86V147.24C129.947 147.867 130.494 148.227 131.587 148.32C132.721 148.413 133.727 148.64 134.607 149C135.074 149.2 135.461 149.56 135.767 150.08C136.087 150.587 136.247 151.24 136.247 152.04V152.72C136.247 153.76 135.954 154.567 135.367 155.14C134.781 155.713 133.967 156 132.927 156H130.747C129.707 156 128.894 155.713 128.307 155.14C127.721 154.567 127.427 153.76 127.427 152.72ZM150.489 156H143.949C143.669 156 143.529 155.86 143.529 155.58V143.56C143.529 143.28 143.669 143.14 143.949 143.14H150.489C150.755 143.14 150.889 143.28 150.889 143.56V144.92C150.889 145.2 150.755 145.34 150.489 145.34H146.309C146.149 145.34 146.069 145.413 146.069 145.56V148.16C146.069 148.307 146.149 148.38 146.309 148.38H149.729C150.009 148.38 150.149 148.52 150.149 148.8V150.16C150.149 150.44 150.009 150.58 149.729 150.58H146.309C146.149 150.58 146.069 150.653 146.069 150.8V153.58C146.069 153.727 146.149 153.8 146.309 153.8H150.489C150.755 153.8 150.889 153.94 150.889 154.22V155.58C150.889 155.86 150.755 156 150.489 156Z" fill="#80C4ED"/>
</svg>
