<svg version="1.2" xmlns="http://www.w3.org/2000/svg" viewBox="0 0 456 456" width="456" height="456">
	<style>
		.s0 { fill: #ffffff } 
		.s1 { fill: #80c4ed } 
	</style>
	<g id="Folder 2">
		<path fill-rule="evenodd" class="s0" d="m148.25 168h73.39c1.24 0 2.24 1.01 2.24 2.25v16c0 1.24-1 2.25-2.24 2.25h-73.39c-1.24 0-2.25-1.01-2.25-2.25v-16c0-1.24 1.01-2.25 2.25-2.25z"/>
		<path fill-rule="evenodd" class="s1" d="m242.53 217.19h65.19c1.24 0 2.25 1.01 2.25 2.25v18.05c0 1.24-1.01 2.25-2.25 2.25h-65.19c-1.24 0-2.25-1.01-2.25-2.25v-18.05c0-1.24 1.01-2.25 2.25-2.25z"/>
		<path fill-rule="evenodd" class="s0" d="m242.53 168h65.19c1.24 0 2.25 1.01 2.25 2.25v16c0 1.24-1.01 2.25-2.25 2.25h-65.19c-1.24 0-2.25-1.01-2.25-2.25v-16c0-1.24 1.01-2.25 2.25-2.25z"/>
		<path fill-rule="evenodd" class="s1" d="m242.53 268.43h65.19c1.24 0 2.25 1.01 2.25 2.25v16c0 1.24-1.01 2.25-2.25 2.25h-65.19c-1.24 0-2.25-1.01-2.25-2.25v-16c0-1.24 1.01-2.25 2.25-2.25z"/>
		<path fill-rule="evenodd" class="s0" d="m223.89 170.25v116.43c0 1.24-1.01 2.25-2.25 2.25h-18.05c-1.24 0-2.25-1.01-2.25-2.25v-116.43c0-1.24 1.01-2.25 2.25-2.25h18.05c1.24 0 2.25 1.01 2.25 2.25z"/>
	</g>
</svg>